<?xml version="1.0" standalone="no"?>
<!DOCTYPE svg PUBLIC "-//W3C//DTD SVG 20010904//EN"
 "http://www.w3.org/TR/2001/REC-SVG-20010904/DTD/svg10.dtd">
<svg version="1.0" xmlns="http://www.w3.org/2000/svg"
 width="800.000000pt" height="800.000000pt" viewBox="0 0 800.000000 800.000000"
 preserveAspectRatio="xMidYMid meet">
<metadata>
Created by potrace 1.14, written by Peter Selinger 2001-2017
</metadata>
<g transform="translate(0.000000,800.000000) scale(0.100000,-0.100000)"
fill="#000000" stroke="none">
<path d="M3705 7660 c-99 -9 -355 -47 -378 -56 -8 -3 -17 -13 -19 -22 -2 -9
-3 -168 -2 -352 2 -184 3 -1735 3 -3447 l1 -3112 22 -12 c12 -6 96 -23 187
-36 247 -37 658 -43 896 -14 618 75 1162 284 1662 639 283 201 608 527 826
830 358 498 587 1118 642 1742 89 1001 -251 1987 -942 2726 -449 482 -1033
833 -1667 1003 -322 87 -498 110 -861 116 -154 2 -320 0 -370 -5z"/>
<path d="M3055 7541 l-60 -16 -3 -3370 c-1 -1854 0 -3380 3 -3392 4 -16 21
-27 71 -43 36 -12 68 -19 72 -15 4 4 8 1548 10 3431 3 3280 2 3424 -15 3423
-10 -1 -45 -9 -78 -18z"/>
<path d="M2750 7442 c-36 -14 -67 -27 -69 -29 -7 -5 0 -6558 7 -6565 4 -3 30
-15 57 -26 28 -11 58 -23 68 -27 16 -7 17 156 17 3334 0 1838 -3 3341 -7 3340
-5 0 -37 -12 -73 -27z"/>
<path d="M2435 7301 l-70 -36 -7 -175 c-4 -96 -6 -447 -3 -780 2 -333 4 -1663
4 -2955 l1 -2350 71 -43 c39 -24 73 -41 75 -39 2 2 3 1446 2 3209 l-3 3206
-70 -37z"/>
<path d="M2117 7125 c-37 -25 -71 -55 -76 -68 -6 -17 -8 -4555 -2 -5640 1
-247 -7 -224 98 -293 l53 -34 0 3040 c0 1672 -1 3040 -2 3040 -2 -1 -33 -21
-71 -45z"/>
<path d="M1844 6937 c-12 -12 -42 -39 -68 -60 l-46 -38 0 -2692 c0 -1481 3
-2702 6 -2713 5 -21 131 -130 139 -122 2 2 5 1014 5 2248 1 3222 1 3400 -7
3399 -5 0 -18 -10 -29 -22z"/>
<path d="M1531 6662 c-8 -9 -39 -43 -69 -74 l-55 -57 2 -2391 c1 -1315 5
-2398 8 -2408 8 -22 131 -151 138 -144 8 8 6 5092 -2 5092 -5 -1 -14 -8 -22
-18z"/>
<path d="M1218 6311 c-9 -11 -25 -32 -34 -48 -10 -15 -34 -48 -54 -72 l-35
-44 0 -2012 0 -2012 65 -86 c36 -47 68 -86 73 -87 4 0 7 986 7 2190 0 1205 -1
2190 -3 2190 -1 0 -10 -9 -19 -19z"/>
<path d="M850 5733 l-65 -128 -7 -265 c-4 -146 -5 -805 -1 -1465 5 -1151 6
-1202 24 -1244 26 -60 102 -190 112 -191 4 0 7 770 7 1710 0 941 -1 1710 -3
1710 -1 0 -31 -57 -67 -127z"/>
<path d="M593 5067 c-7 -16 -13 -36 -13 -45 0 -9 -9 -55 -20 -102 -55 -239
-61 -283 -81 -590 -17 -273 7 -654 56 -860 14 -58 29 -124 35 -148 5 -23 10
-52 11 -65 0 -21 1 -21 12 3 9 18 13 243 15 835 2 446 2 853 0 905 -3 85 -4
91 -15 67z"/>
</g>
</svg>
